<svg id="Layer_1" enable-background="new 0 0 512 512" height="512" viewBox="0 0 512 512" width="512" xmlns="http://www.w3.org/2000/svg"><g><g><path clip-rule="evenodd" d="m203.438 286.794-65.703-25.172-48.737 25.172c-4.176 23.77-5.782 50.403-4.614 77.21 44.298-12.907 93.386-1.197 119.054-47.22l9.812-11.798z" fill="#ccf49e" fill-rule="evenodd"/></g><g><path clip-rule="evenodd" d="m370.498 265.447-61.936 21.347-9.286 12.294 9.286 17.696c39.831 37.262 81.676 37.817 119.112 47.278 1.022-26.866-.584-53.469-4.672-77.269z" fill="#ccf49e" fill-rule="evenodd"/></g><g><path clip-rule="evenodd" d="m433.456 226.579h-102.584c-.818 1.752-1.664 3.475-2.54 5.227-8.264 16.266-23.536 33.115-40.385 45.906v9.082h115.666 29.844c9.636 0 17.521-7.885 17.521-17.521v-25.173c-.001-9.637-7.885-17.521-17.522-17.521z" fill="#95d6a4" fill-rule="evenodd"/></g><g><path clip-rule="evenodd" d="m234.333 276.806c-16.353-12.674-31.129-29.085-39.188-45-.905-1.752-1.723-3.475-2.541-5.227h-114.06c-9.666 0-17.55 7.885-17.55 17.521v25.172c0 9.637 7.884 17.521 17.55 17.521h29.844 125.945z" fill="#95d6a4" fill-rule="evenodd"/></g><g><path clip-rule="evenodd" d="m186.384 261.621h-77.997-29.843c-9.666 0-17.55-7.885-17.55-17.521v25.172c0 9.637 7.884 17.521 17.55 17.521h10.454 19.39 95.05v-9.987c-5.987-4.613-11.739-9.753-17.054-15.185z" fill="#78c2a4" fill-rule="evenodd"/></g><g><path clip-rule="evenodd" d="m403.613 261.621h-76.858c-5.636 5.782-11.797 11.243-18.192 16.09v9.082h95.05 19.39 10.454c9.636 0 17.521-7.885 17.521-17.521v-25.172c0 9.637-7.884 17.521-17.521 17.521z" fill="#78c2a4" fill-rule="evenodd"/></g><g><path clip-rule="evenodd" d="m108.388 512v-165.663c-40.035 23.508-60.155 59.631-60.155 98.586v67.077z" fill="#ffd772" fill-rule="evenodd"/></g><g><path clip-rule="evenodd" d="m463.767 444.923c0-30.166-12.06-58.638-36.093-80.861-7.008-6.483-15.039-12.44-24.062-17.726-.117-.088-.234-.146-.35-.204v165.868h.35 60.155z" fill="#ffd772" fill-rule="evenodd"/></g><g><path clip-rule="evenodd" d="m463.767 444.923c0-30.166-12.06-58.638-36.093-80.861-7.008-6.483-15.039-12.44-24.062-17.726l-.35-.204v30.224c25.61 15.769 35.976 45.964 35.976 73.881v61.763h24.529z" fill="#fdb440" fill-rule="evenodd"/></g><g><path clip-rule="evenodd" d="m355.722 512 29.737-77.485-29.737-107.452c-3.066-.818-6.249-1.548-9.461-2.219l-37.699-8.06c-11.33 23.128-93.824 23.128-105.125 0l-37.699 8.06c-3.358.701-6.629 1.46-9.812 2.307l-21.448 97.455 21.77 87.394h99.752z" fill="#ffd772" fill-rule="evenodd"/></g><g><path clip-rule="evenodd" d="m108.388 512h47.51v-184.937c0-3.504-2.862-6.366-6.366-6.366h-34.779c-3.504 0-6.366 2.862-6.366 6.366v184.937z" fill="#95d6a4" fill-rule="evenodd"/></g><g><path clip-rule="evenodd" d="m355.722 512h47.54v-184.937c0-3.504-2.862-6.366-6.366-6.366h-34.808c-3.504 0-6.366 2.862-6.366 6.366z" fill="#95d6a4" fill-rule="evenodd"/></g><g><path clip-rule="evenodd" d="m346.261 324.844-37.699-8.06c-3.767 7.68-8.585 14.134-14.075 19.332 19.419 4.117 43.422 9.023 61.235 17.2v-26.253c-3.066-.817-6.249-1.547-9.461-2.219z" fill="#fdb440" fill-rule="evenodd"/></g><g><path clip-rule="evenodd" d="m149.532 320.697h-34.779c-3.504 0-6.366 2.862-6.366 6.366v19.273 8.819c0-3.504 2.862-6.366 6.366-6.366h34.779c3.504 0 6.366 2.862 6.366 6.366v-28.005-.088c0-3.503-2.862-6.365-6.366-6.365z" fill="#78c2a4" fill-rule="evenodd"/></g><g><path clip-rule="evenodd" d="m396.896 320.697h-34.808c-3.504 0-6.366 2.862-6.366 6.366v26.253 1.84c0-3.504 2.862-6.366 6.366-6.366h34.808c3.504 0 6.366 2.862 6.366 6.366v-9.023-19.069c0-3.505-2.862-6.367-6.366-6.367z" fill="#78c2a4" fill-rule="evenodd"/></g><g><path clip-rule="evenodd" d="m203.438 276.806v9.987 29.991c11.301 23.128 32.063 34.984 52.562 35.627 20.47-.642 41.232-12.499 52.562-35.627v-29.991-9.082c-4.38 3.33-100.364 2.775-105.124-.905z" fill="#ffbc85" fill-rule="evenodd"/></g><g><path clip-rule="evenodd" d="m203.438 276.806v9.987 12.499c3.241 2.044 6.541 3.942 9.812 5.694 15.389 8.235 30.866 13.199 43.393 12.586 7.184.35 15.301-1.11 23.828-3.971 12.615-4.234 9.753-1.285 9.753 14.017v12.177c7.271-5.724 13.608-13.404 18.338-23.011v-10.805-19.186-9.082c-4.38 3.33-100.364 2.775-105.124-.905z" fill="#f5a96c" fill-rule="evenodd"/></g><g><path clip-rule="evenodd" d="m446.538 88.628-85.005-16.704c-2.044 13.725-3.387 28.618 8.819 43.161h75.953c14.776 0 23.215-21.93.233-26.457z" fill="#f9f6f6" fill-rule="evenodd"/></g><g><path clip-rule="evenodd" d="m361.738 194.895c32.968 2.424 46.547-52.593 19.565-52.593h-17.521c-8.206 19.361-11.827 40.532-2.044 52.593z" fill="#f5a96c" fill-rule="evenodd"/></g><g><path clip-rule="evenodd" d="m149.357 142.302h-17.521c-26.953 0-13.403 55.017 19.594 52.593 26.252-26.311 14.98-41.759-2.073-52.593z" fill="#f5a96c" fill-rule="evenodd"/></g><g><path clip-rule="evenodd" d="m363.636 176.03c1.226-19.186.146-41.292.146-60.945-62.462-28.238-151.905-28.092-214.425 0 .029 19.653-1.08 41.73.175 60.945 0 5.899.642 12.265 1.898 18.865 1.927 10.221 5.373 21.026 10.279 31.684.788 1.752 1.635 3.475 2.511 5.227 10.425 20.5 31.975 41.905 53.73 54.988 13.695 8.235 27.478 13.17 38.633 12.586 11.155.584 24.938-4.351 38.604-12.586 4.497-2.687 8.994-5.753 13.374-9.082 16.82-12.791 32.092-29.64 40.356-45.906.905-1.752 1.752-3.475 2.541-5.227 4.906-10.659 8.322-21.464 10.279-31.684 1.256-6.6 1.899-12.966 1.899-18.865z" fill="#fed1a3" fill-rule="evenodd"/></g><g><path clip-rule="evenodd" d="m361.533 71.925c-18.63-43.482-63.746-71.925-107.139-71.925-56.534 0-115.988 48.563-115.988 115.085h10.95 214.425 6.57c.001-15.535-3.182-30.049-8.818-43.16z" fill="#95d6a4" fill-rule="evenodd"/></g><g><path clip-rule="evenodd" d="m284.179 89.709c0-13.959-11.418-25.377-25.376-25.377h-8.352c-13.958 0-25.376 11.418-25.376 25.377v25.377h31.508 27.595v-25.377z" fill="#365e7d" fill-rule="evenodd"/></g><g><path clip-rule="evenodd" d="m351.459 226.579c4.906-10.659 8.322-21.464 10.279-31.684 1.256-6.6 1.898-12.966 1.898-18.865.701-10.659.672-22.194.496-33.728-.117-9.228-.35-18.485-.35-27.216h-34.165-45.437-27.595-31.508-75.719c0 6.541-.117 13.345-.234 20.237h.234 180.552c.204 12.44.292 24.968-.467 36.444 0 5.899-.613 12.265-1.898 18.865-8.235 43.277-48.328 94.644-94.904 103.667 8.585 3.563 16.791 5.461 23.945 5.081 11.155.584 24.938-4.351 38.604-12.586 4.497-2.687 8.994-5.753 13.374-9.082 16.82-12.791 32.092-29.64 40.356-45.906.904-1.752 1.751-3.475 2.539-5.227z" fill="#ffbc85" fill-rule="evenodd"/></g><g><path clip-rule="evenodd" d="m284.179 89.709c0-13.959-11.418-25.377-25.376-25.377h-8.352c-9.461 0-17.725 5.227-22.105 12.966 2.862-1.139 5.986-1.752 9.228-1.752h8.352c11.651 0 21.521 7.972 24.471 18.719.584 2.132.905 4.351.905 6.658v14.163h12.878v-19.887-5.49z" fill="#2b4d66" fill-rule="evenodd"/></g><g><path clip-rule="evenodd" d="m431.441 101.098h-61.965c.584 4.556.876 9.228.876 13.988h75.953c14.776 0 23.215-21.931.234-26.457l-.672-.146c-.555 6.482-6.6 12.615-14.426 12.615z" fill="#ecdaec" fill-rule="evenodd"/></g><g><path clip-rule="evenodd" d="m361.533 71.925c-18.63-43.482-63.746-71.925-107.139-71.925-7.242 0-14.513.788-21.697 2.307 35.976 7.593 69.879 33.407 85.385 69.618 4.059 9.432 6.833 19.565 8.089 30.253.496 4.234.759 8.527.759 12.907h36.852 6.57c0-15.535-3.183-30.049-8.819-43.16z" fill="#78c2a4" fill-rule="evenodd"/></g><g><path d="m208.051 179.902c-4.267 0-7.726-3.459-7.726-7.726v-12.703c0-4.267 3.459-7.726 7.726-7.726s7.726 3.459 7.726 7.726v12.703c.001 4.267-3.459 7.726-7.726 7.726z" fill="#365e7d"/></g><g><path d="m305.117 178.646c-4.267 0-7.726-3.459-7.726-7.726v-12.732c0-4.267 3.459-7.726 7.726-7.726s7.726 3.459 7.726 7.726v12.732c0 4.267-3.459 7.726-7.726 7.726z" fill="#365e7d"/></g><g><path d="m255.979 257.875c-10.169 0-20.13-3.725-29.606-11.177-3.354-2.638-3.935-7.495-1.297-10.85 2.639-3.354 7.496-3.934 10.85-1.297 13.444 10.573 26.659 10.507 41.588-.204 3.467-2.488 8.294-1.694 10.782 1.774 2.487 3.467 1.694 8.294-1.774 10.782-10.195 7.314-20.471 10.972-30.543 10.972z" fill="#f5a96c"/></g></g></svg>